solid Sześcian (Meshed)
  facet normal -1.000000 0.000000 0.000000
    outer loop
      vertex -100.000000 -100.000000 -2.500000
      vertex -100.000000 -100.000000 2.500000
      vertex -100.000000 100.000000 -2.500000
    endloop
  endfacet
  facet normal -1.000000 0.000000 0.000000
    outer loop
      vertex -100.000000 100.000000 -2.500000
      vertex -100.000000 -100.000000 2.500000
      vertex -100.000000 100.000000 2.500000
    endloop
  endfacet
  facet normal 1.000000 0.000000 0.000000
    outer loop
      vertex 100.000000 -100.000000 2.500000
      vertex 100.000000 -100.000000 -2.500000
      vertex 100.000000 100.000000 -2.500000
    endloop
  endfacet
  facet normal 1.000000 -0.000000 0.000000
    outer loop
      vertex 100.000000 -100.000000 2.500000
      vertex 100.000000 100.000000 -2.500000
      vertex 100.000000 100.000000 2.500000
    endloop
  endfacet
  facet normal 0.000000 -1.000000 0.000000
    outer loop
      vertex 100.000000 -100.000000 -2.500000
      vertex 100.000000 -100.000000 2.500000
      vertex -100.000000 -100.000000 -2.500000
    endloop
  endfacet
  facet normal 0.000000 -1.000000 0.000000
    outer loop
      vertex -100.000000 -100.000000 -2.500000
      vertex 100.000000 -100.000000 2.500000
      vertex -100.000000 -100.000000 2.500000
    endloop
  endfacet
  facet normal 0.000000 1.000000 0.000000
    outer loop
      vertex 100.000000 100.000000 2.500000
      vertex 100.000000 100.000000 -2.500000
      vertex -100.000000 100.000000 -2.500000
    endloop
  endfacet
  facet normal 0.000000 1.000000 0.000000
    outer loop
      vertex 100.000000 100.000000 2.500000
      vertex -100.000000 100.000000 -2.500000
      vertex -100.000000 100.000000 2.500000
    endloop
  endfacet
  facet normal 0.000000 0.000000 -1.000000
    outer loop
      vertex -100.000000 100.000000 -2.500000
      vertex 100.000000 100.000000 -2.500000
      vertex -100.000000 -100.000000 -2.500000
    endloop
  endfacet
  facet normal 0.000000 0.000000 -1.000000
    outer loop
      vertex -100.000000 -100.000000 -2.500000
      vertex 100.000000 100.000000 -2.500000
      vertex 100.000000 -100.000000 -2.500000
    endloop
  endfacet
  facet normal 0.000000 0.000000 1.000000
    outer loop
      vertex 100.000000 100.000000 2.500000
      vertex -100.000000 100.000000 2.500000
      vertex -100.000000 -100.000000 2.500000
    endloop
  endfacet
  facet normal 0.000000 0.000000 1.000000
    outer loop
      vertex 100.000000 100.000000 2.500000
      vertex -100.000000 -100.000000 2.500000
      vertex 100.000000 -100.000000 2.500000
    endloop
  endfacet
endsolid Mesh
